<svg width="117" height="81" viewBox="0 0 117 81" fill="none" xmlns="http://www.w3.org/2000/svg">
<path d="M20.8636 0H2.00274C1.17324 0 0.501229 0.673244 0.502742 1.50274L0.615893 63.5091C0.620925 66.267 2.85802 68.5 5.61589 68.5H19.0407C20.3003 68.5 21.5134 68.9754 22.4377 69.8312L33.0623 79.6688C33.9866 80.5246 35.1997 81 36.4593 81H51.7097C52.8673 81 53.9889 80.5984 54.8834 79.8636L66.1166 70.6364C67.0111 69.9016 68.1327 69.5 69.2903 69.5H111.5C114.261 69.5 116.5 67.2614 116.5 64.5V5.5C116.5 2.73858 114.261 0.5 111.5 0.5H68.9449C67.694 0.5 66.4884 0.968926 65.5663 1.81423L56.4337 10.1858C55.5116 11.0311 54.306 11.5 53.0551 11.5H36.1364C34.7718 11.5 33.4665 10.9422 32.5232 9.95611L24.4768 1.54389C23.5335 0.557754 22.2282 0 20.8636 0Z" fill="#FF8B00"/>
</svg>