<svg width="420" height="315" viewBox="0 0 420 315" fill="none" xmlns="http://www.w3.org/2000/svg">
<rect width="419.333" height="314.5" fill="#FF8B00"/>
<path d="M172.03 116.75H153.169C152.34 116.75 151.668 117.423 151.669 118.253L151.783 180.259C151.788 183.017 154.025 185.25 156.783 185.25H170.207C171.467 185.25 172.68 185.725 173.604 186.581L184.229 196.419C185.153 197.275 186.366 197.75 187.626 197.75H202.876C204.034 197.75 205.156 197.348 206.05 196.614L217.283 187.386C218.178 186.652 219.299 186.25 220.457 186.25H262.667C265.428 186.25 267.667 184.011 267.667 181.25V122.25C267.667 119.489 265.428 117.25 262.667 117.25H220.112C218.861 117.25 217.655 117.719 216.733 118.564L207.6 126.936C206.678 127.781 205.473 128.25 204.222 128.25H187.303C185.938 128.25 184.633 127.692 183.69 126.706L175.643 118.294C174.7 117.308 173.395 116.75 172.03 116.75Z" fill="white"/>
</svg>