<svg width="159" height="137" viewBox="0 0 159 137" fill="none" xmlns="http://www.w3.org/2000/svg">
<path d="M78.8729 25.207C80.8058 19.9833 88.1942 19.9833 90.1271 25.207L100.693 53.7618C101.301 55.4041 102.596 56.699 104.238 57.3067L132.793 67.8729C138.017 69.8058 138.017 77.1942 132.793 79.1271L104.238 89.6933C102.596 90.301 101.301 91.5959 100.693 93.2382L90.1271 121.793C88.1942 127.017 80.8058 127.017 78.8729 121.793L68.3067 93.2382C67.699 91.5959 66.4041 90.301 64.7618 89.6933L36.207 79.1271C30.9833 77.1942 30.9833 69.8058 36.207 67.8729L64.7618 57.3067C66.4041 56.699 67.699 55.4041 68.3067 53.7618L78.8729 25.207Z" fill="#FFE601"/>
<path d="M18.1864 8.10352C19.1529 5.49166 22.8471 5.49166 23.8136 8.10352L26.1257 14.3519C26.4295 15.173 27.077 15.8205 27.8981 16.1243L34.1465 18.4364C36.7583 19.4029 36.7583 23.0971 34.1465 24.0636L27.8981 26.3757C27.077 26.6795 26.4295 27.327 26.1257 28.1481L23.8136 34.3965C22.8471 37.0083 19.1529 37.0083 18.1864 34.3965L15.8743 28.1481C15.5705 27.327 14.923 26.6795 14.1019 26.3757L7.85352 24.0636C5.24166 23.0971 5.24166 19.4029 7.85352 18.4364L14.1019 16.1243C14.923 15.8205 15.5705 15.173 15.8743 14.3519L18.1864 8.10352Z" fill="#FFE601"/>
<path d="M37.3743 108.569C38.0186 106.828 40.4814 106.828 41.1257 108.569L41.9019 110.667C42.1044 111.214 42.536 111.646 43.0835 111.848L45.181 112.624C46.9222 113.269 46.9222 115.731 45.181 116.376L43.0835 117.152C42.536 117.354 42.1044 117.786 41.9019 118.333L41.1257 120.431C40.4814 122.172 38.0186 122.172 37.3743 120.431L36.5981 118.333C36.3956 117.786 35.964 117.354 35.4165 117.152L33.319 116.376C31.5778 115.731 31.5778 113.269 33.319 112.624L35.4165 111.848C35.964 111.646 36.3956 111.214 36.5981 110.667L37.3743 108.569Z" fill="#FFE601"/>
<path d="M140.874 99.069C141.519 97.3278 143.981 97.3278 144.626 99.069L146.077 102.991C146.28 103.539 146.711 103.97 147.259 104.173L151.181 105.624C152.922 106.269 152.922 108.731 151.181 109.376L147.259 110.827C146.711 111.03 146.28 111.461 146.077 112.009L144.626 115.931C143.981 117.672 141.519 117.672 140.874 115.931L139.423 112.009C139.22 111.461 138.789 111.03 138.241 110.827L134.319 109.376C132.578 108.731 132.578 106.269 134.319 105.624L138.241 104.173C138.789 103.97 139.22 103.539 139.423 102.991L140.874 99.069Z" fill="#FFE601"/>
<path d="M140.874 10.319C141.519 8.57777 143.981 8.57777 144.626 10.319L146.752 16.0661C146.955 16.6135 147.386 17.0451 147.934 17.2477L153.681 19.3743C155.422 20.0186 155.422 22.4814 153.681 23.1257L147.934 25.2523C147.386 25.4549 146.955 25.8865 146.752 26.4339L144.626 32.181C143.981 33.9222 141.519 33.9222 140.874 32.181L138.748 26.4339C138.545 25.8865 138.114 25.4549 137.566 25.2523L131.819 23.1257C130.078 22.4814 130.078 20.0186 131.819 19.3743L137.566 17.2477C138.114 17.0451 138.545 16.6135 138.748 16.0661L140.874 10.319Z" fill="#FFE601"/>
</svg>